<svg width="64" height="64" viewBox="0 0 640 640" fill="none" xmlns="http://www.w3.org/2000/svg">
  <rect width="640" height="640" rx="150" fill="#090B11"/>
  <rect x="136" y="188" width="368" height="270" rx="92" fill="#151C2A"/>
  <rect x="194" y="206" width="252" height="74" rx="37" fill="#05070C"/>
  <rect x="210" y="222" width="220" height="42" rx="21" fill="url(#slotGlow)"/>
  <circle cx="232" cy="334" r="22" fill="#FFC35E"/>
  <circle cx="408" cy="334" r="22" fill="#FFC35E"/>
  <circle cx="232" cy="334" r="9" fill="#141824"/>
  <circle cx="408" cy="334" r="9" fill="#141824"/>
  <rect x="222" y="100" width="196" height="216" rx="28" fill="#FFF8EE"/>
  <path d="M214 458H426V482C426 527.84 388.84 565 343 565H297C251.16 565 214 527.84 214 482V458Z" fill="#121824"/>
  <rect x="208" y="442" width="224" height="34" rx="12" fill="#78859D"/>
  <rect x="256" y="486" width="18" height="92" rx="9" fill="#FF6B3D"/>
  <rect x="311" y="486" width="18" height="118" rx="9" fill="#FFF2D2"/>
  <rect x="366" y="486" width="18" height="92" rx="9" fill="#FFB84D"/>
  <defs>
    <linearGradient id="slotGlow" x1="320" y1="222" x2="320" y2="264" gradientUnits="userSpaceOnUse">
      <stop stop-color="#FFBF5F"/>
      <stop offset="1" stop-color="#FF6B3D"/>
    </linearGradient>
  </defs>
</svg>
